<?xml version="1.0" encoding="UTF-8" standalone="no"?>
<!DOCTYPE svg PUBLIC "-//W3C//DTD SVG 1.1//EN"
 "http://www.w3.org/Graphics/SVG/1.1/DTD/svg11.dtd">
<!-- Generated by graphviz version 2.43.0 (0)
 -->
<!-- Title: EMSDatabase Pages: 1 -->
<svg width="1605pt" height="1205pt"
 viewBox="0.00 0.00 1605.40 1205.40" xmlns="http://www.w3.org/2000/svg" xmlns:xlink="http://www.w3.org/1999/xlink">
<g id="graph0" class="graph" transform="scale(1 1) rotate(0) translate(25.2 1180.2)">
<title>EMSDatabase</title>
<polygon fill="white" stroke="transparent" points="-25.2,25.2 -25.2,-1180.2 1580.2,-1180.2 1580.2,25.2 -25.2,25.2"/>
<!-- User -->
<g id="node1" class="node">
<title>User</title>
<polygon fill="#0f766e" stroke="transparent" points="36,-600.5 36,-627.5 166,-627.5 166,-600.5 36,-600.5"/>
<text text-anchor="start" x="64.5" y="-611.3" font-family="Arial" font-weight="bold" font-size="14.00" fill="white">users_user</text>
<text text-anchor="start" x="42" y="-583.3" font-family="Arial" font-size="14.00">id PK</text>
<text text-anchor="start" x="42" y="-556.3" font-family="Arial" font-size="14.00">username UNIQUE</text>
<text text-anchor="start" x="42" y="-529.3" font-family="Arial" font-size="14.00">email UNIQUE</text>
<text text-anchor="start" x="42" y="-502.3" font-family="Arial" font-size="14.00">role, phone</text>
<polygon fill="none" stroke="#0f766e" points="35,-492 35,-629 167,-629 167,-492 35,-492"/>
</g>
<!-- EmailToken -->
<g id="node3" class="node">
<title>EmailToken</title>
<polygon fill="#64748b" stroke="transparent" points="359.5,-954.5 359.5,-981.5 558.5,-981.5 558.5,-954.5 359.5,-954.5"/>
<text text-anchor="start" x="365.5" y="-965.3" font-family="Arial" font-weight="bold" font-size="14.00" fill="white">users_emailverificationtoken</text>
<text text-anchor="start" x="365.5" y="-937.3" font-family="Arial" font-size="14.00">id PK</text>
<text text-anchor="start" x="365.5" y="-910.3" font-family="Arial" font-size="14.00">user_id FK</text>
<text text-anchor="start" x="365.5" y="-883.3" font-family="Arial" font-size="14.00">token_hash</text>
<text text-anchor="start" x="365.5" y="-856.3" font-family="Arial" font-size="14.00">expires_at, used_at</text>
<polygon fill="none" stroke="#64748b" points="358,-846 358,-983 559,-983 559,-846 358,-846"/>
</g>
<!-- User&#45;&gt;EmailToken -->
<g id="edge2" class="edge">
<title>User&#45;&gt;EmailToken</title>
<path fill="none" stroke="#475569" d="M167.13,-615.31C179.1,-626.26 191.21,-637.95 202,-649.5 217.35,-665.94 218.52,-672.29 233,-689.5 286.07,-752.57 299.27,-768.67 358,-826.5 362.87,-831.29 367.94,-836.16 373.11,-841.01"/>
<polygon fill="#475569" stroke="#475569" points="371.51,-842.87 378.3,-845.85 374.85,-839.29 371.51,-842.87"/>
<text text-anchor="middle" x="280" y="-795.3" font-family="Arial" font-size="9.00">1:N user_id</text>
</g>
<!-- PasswordToken -->
<g id="node4" class="node">
<title>PasswordToken</title>
<polygon fill="#64748b" stroke="transparent" points="364.5,-777.5 364.5,-804.5 552.5,-804.5 552.5,-777.5 364.5,-777.5"/>
<text text-anchor="start" x="370.5" y="-788.3" font-family="Arial" font-weight="bold" font-size="14.00" fill="white">users_passwordresettoken</text>
<text text-anchor="start" x="370.5" y="-760.3" font-family="Arial" font-size="14.00">id PK</text>
<text text-anchor="start" x="370.5" y="-733.3" font-family="Arial" font-size="14.00">user_id FK</text>
<text text-anchor="start" x="370.5" y="-706.3" font-family="Arial" font-size="14.00">token_hash</text>
<text text-anchor="start" x="370.5" y="-679.3" font-family="Arial" font-size="14.00">expires_at, used_at</text>
<polygon fill="none" stroke="#64748b" points="363.5,-669 363.5,-806 553.5,-806 553.5,-669 363.5,-669"/>
</g>
<!-- User&#45;&gt;PasswordToken -->
<g id="edge3" class="edge">
<title>User&#45;&gt;PasswordToken</title>
<path fill="none" stroke="#475569" d="M167.2,-592.96C220.2,-619.35 295.86,-657.02 356.65,-687.29"/>
<polygon fill="#475569" stroke="#475569" points="355.88,-689.64 363.24,-690.57 358.06,-685.26 355.88,-689.64"/>
<text text-anchor="middle" x="280" y="-672.3" font-family="Arial" font-size="9.00">1:N user_id</text>
</g>
<!-- House -->
<g id="node5" class="node">
<title>House</title>
<polygon fill="#2563eb" stroke="transparent" points="405.5,-600.5 405.5,-627.5 512.5,-627.5 512.5,-600.5 405.5,-600.5"/>
<text text-anchor="start" x="411.5" y="-611.3" font-family="Arial" font-weight="bold" font-size="14.00" fill="white">houses_house</text>
<text text-anchor="start" x="411.5" y="-583.3" font-family="Arial" font-size="14.00">id PK</text>
<text text-anchor="start" x="411.5" y="-556.3" font-family="Arial" font-size="14.00">owner_id FK</text>
<text text-anchor="start" x="411.5" y="-529.3" font-family="Arial" font-size="14.00">name, location</text>
<text text-anchor="start" x="411.5" y="-502.3" font-family="Arial" font-size="14.00">status</text>
<polygon fill="none" stroke="#2563eb" points="404,-492 404,-629 513,-629 513,-492 404,-492"/>
</g>
<!-- User&#45;&gt;House -->
<g id="edge1" class="edge">
<title>User&#45;&gt;House</title>
<path fill="none" stroke="#475569" d="M167.2,-560.5C232.63,-560.5 332.63,-560.5 396.52,-560.5"/>
<polygon fill="#475569" stroke="#475569" points="396.74,-562.95 403.74,-560.5 396.74,-558.05 396.74,-562.95"/>
<text text-anchor="middle" x="280" y="-563.3" font-family="Arial" font-size="9.00">1:N owner_id</text>
</g>
<!-- Dataset -->
<g id="node10" class="node">
<title>Dataset</title>
<polygon fill="#be123c" stroke="transparent" points="375.5,-108.5 375.5,-135.5 542.5,-135.5 542.5,-108.5 375.5,-108.5"/>
<text text-anchor="start" x="404" y="-119.3" font-family="Arial" font-weight="bold" font-size="14.00" fill="white">datasets_dataset</text>
<text text-anchor="start" x="381.5" y="-91.3" font-family="Arial" font-size="14.00">id PK</text>
<text text-anchor="start" x="381.5" y="-64.3" font-family="Arial" font-size="14.00">uploaded_by_id FK NULL</text>
<text text-anchor="start" x="381.5" y="-37.3" font-family="Arial" font-size="14.00">kind, file</text>
<text text-anchor="start" x="381.5" y="-10.3" font-family="Arial" font-size="14.00">status, rows</text>
<polygon fill="none" stroke="#be123c" points="374,0 374,-137 543,-137 543,0 374,0"/>
</g>
<!-- User&#45;&gt;Dataset -->
<g id="edge4" class="edge">
<title>User&#45;&gt;Dataset</title>
<path fill="none" stroke="#475569" d="M109.25,-491.78C121.38,-408.09 152.95,-266.74 233,-176.5 268.29,-136.72 321.47,-110.24 367.21,-93.46"/>
<polygon fill="#475569" stroke="#475569" points="368.14,-95.72 373.9,-91.05 366.48,-91.11 368.14,-95.72"/>
<text text-anchor="middle" x="280" y="-179.3" font-family="Arial" font-size="9.00">0..1:N uploaded_by_id</text>
</g>
<!-- DataExport -->
<g id="node15" class="node">
<title>DataExport</title>
<polygon fill="#059669" stroke="transparent" points="715.5,-197.5 715.5,-224.5 851.5,-224.5 851.5,-197.5 715.5,-197.5"/>
<text text-anchor="start" x="721.5" y="-208.3" font-family="Arial" font-weight="bold" font-size="14.00" fill="white">reports_dataexport</text>
<text text-anchor="start" x="721.5" y="-180.3" font-family="Arial" font-size="14.00">id PK</text>
<text text-anchor="start" x="721.5" y="-153.3" font-family="Arial" font-size="14.00">user_id FK</text>
<text text-anchor="start" x="721.5" y="-126.3" font-family="Arial" font-size="14.00">house_id FK</text>
<text text-anchor="start" x="721.5" y="-99.3" font-family="Arial" font-size="14.00">export_type</text>
<text text-anchor="start" x="721.5" y="-72.3" font-family="Arial" font-size="14.00">start_date, end_date</text>
<polygon fill="none" stroke="#059669" points="714.5,-61.5 714.5,-225.5 852.5,-225.5 852.5,-61.5 714.5,-61.5"/>
</g>
<!-- User&#45;&gt;DataExport -->
<g id="edge5" class="edge">
<title>User&#45;&gt;DataExport</title>
<path fill="none" stroke="#475569" d="M137.53,-491.83C179.8,-417.27 257.47,-300.42 358,-237.5 466.55,-169.56 617.66,-150.38 707.25,-145.18"/>
<polygon fill="#475569" stroke="#475569" points="707.53,-147.62 714.39,-144.79 707.27,-142.72 707.53,-147.62"/>
<text text-anchor="middle" x="458.5" y="-240.3" font-family="Arial" font-size="9.00">1:N user_id</text>
</g>
<!-- PhoneCode -->
<g id="node2" class="node">
<title>PhoneCode</title>
<polygon fill="#64748b" stroke="transparent" points="1,-777.5 1,-804.5 201,-804.5 201,-777.5 1,-777.5"/>
<text text-anchor="start" x="7" y="-788.3" font-family="Arial" font-weight="bold" font-size="14.00" fill="white">users_phoneverificationcode</text>
<text text-anchor="start" x="7" y="-760.3" font-family="Arial" font-size="14.00">id PK</text>
<text text-anchor="start" x="7" y="-733.3" font-family="Arial" font-size="14.00">phone INDEX</text>
<text text-anchor="start" x="7" y="-706.3" font-family="Arial" font-size="14.00">code_hash</text>
<text text-anchor="start" x="7" y="-679.3" font-family="Arial" font-size="14.00">expires_at, used_at</text>
<polygon fill="none" stroke="#64748b" points="0,-669 0,-806 202,-806 202,-669 0,-669"/>
</g>
<!-- EnergyAsset -->
<g id="node6" class="node">
<title>EnergyAsset</title>
<polygon fill="#7c3aed" stroke="transparent" points="687.5,-777.5 687.5,-804.5 880.5,-804.5 880.5,-777.5 687.5,-777.5"/>
<text text-anchor="start" x="693.5" y="-788.3" font-family="Arial" font-weight="bold" font-size="14.00" fill="white">energy_assets_energyasset</text>
<text text-anchor="start" x="693.5" y="-760.3" font-family="Arial" font-size="14.00">id PK</text>
<text text-anchor="start" x="693.5" y="-733.3" font-family="Arial" font-size="14.00">house_id FK</text>
<text text-anchor="start" x="693.5" y="-706.3" font-family="Arial" font-size="14.00">asset_type</text>
<text text-anchor="start" x="693.5" y="-679.3" font-family="Arial" font-size="14.00">nominal_power_kw</text>
<text text-anchor="start" x="693.5" y="-652.3" font-family="Arial" font-size="14.00">capacity_kwh</text>
<polygon fill="none" stroke="#7c3aed" points="686,-641.5 686,-805.5 881,-805.5 881,-641.5 686,-641.5"/>
</g>
<!-- House&#45;&gt;EnergyAsset -->
<g id="edge6" class="edge">
<title>House&#45;&gt;EnergyAsset</title>
<path fill="none" stroke="#475569" d="M513.2,-587.6C558.37,-610.39 624.24,-643.64 679.53,-671.54"/>
<polygon fill="#475569" stroke="#475569" points="678.52,-673.77 685.88,-674.74 680.73,-669.4 678.52,-673.77"/>
<text text-anchor="middle" x="622.5" y="-659.3" font-family="Arial" font-size="9.00">1:N house_id</text>
</g>
<!-- Sensor -->
<g id="node7" class="node">
<title>Sensor</title>
<polygon fill="#7c3aed" stroke="transparent" points="1039.5,-866.5 1039.5,-893.5 1210.5,-893.5 1210.5,-866.5 1039.5,-866.5"/>
<text text-anchor="start" x="1074" y="-877.3" font-family="Arial" font-weight="bold" font-size="14.00" fill="white">devices_sensor</text>
<text text-anchor="start" x="1045.5" y="-849.3" font-family="Arial" font-size="14.00">id PK</text>
<text text-anchor="start" x="1045.5" y="-822.3" font-family="Arial" font-size="14.00">house_id FK</text>
<text text-anchor="start" x="1045.5" y="-795.3" font-family="Arial" font-size="14.00">energy_asset_id FK NULL</text>
<text text-anchor="start" x="1045.5" y="-768.3" font-family="Arial" font-size="14.00">sensor_type, unit</text>
<polygon fill="none" stroke="#7c3aed" points="1038,-758 1038,-895 1211,-895 1211,-758 1038,-758"/>
</g>
<!-- House&#45;&gt;Sensor -->
<g id="edge7" class="edge">
<title>House&#45;&gt;Sensor</title>
<path fill="none" stroke="#475569" d="M513.15,-604.68C528.6,-618.4 545.04,-634 559,-649.5 623.55,-721.18 600.17,-781.47 686,-825.5 794.18,-881 938.14,-867.48 1030.83,-849.56"/>
<polygon fill="#475569" stroke="#475569" points="1031.57,-851.91 1037.97,-848.15 1030.62,-847.1 1031.57,-851.91"/>
<text text-anchor="middle" x="783.5" y="-867.3" font-family="Arial" font-size="9.00">1:N house_id</text>
</g>
<!-- Equipment -->
<g id="node8" class="node">
<title>Equipment</title>
<polygon fill="#7c3aed" stroke="transparent" points="714.5,-1126.5 714.5,-1153.5 853.5,-1153.5 853.5,-1126.5 714.5,-1126.5"/>
<text text-anchor="start" x="720.5" y="-1137.3" font-family="Arial" font-weight="bold" font-size="14.00" fill="white">devices_equipment</text>
<text text-anchor="start" x="720.5" y="-1109.3" font-family="Arial" font-size="14.00">id PK</text>
<text text-anchor="start" x="720.5" y="-1082.3" font-family="Arial" font-size="14.00">house_id FK</text>
<text text-anchor="start" x="720.5" y="-1055.3" font-family="Arial" font-size="14.00">rated_power_kw</text>
<text text-anchor="start" x="720.5" y="-1028.3" font-family="Arial" font-size="14.00">priority, status</text>
<polygon fill="none" stroke="#7c3aed" points="713,-1018 713,-1155 854,-1155 854,-1018 713,-1018"/>
</g>
<!-- House&#45;&gt;Equipment -->
<g id="edge8" class="edge">
<title>House&#45;&gt;Equipment</title>
<path fill="none" stroke="#475569" d="M513.18,-595.88C530.77,-610.33 548.48,-628.59 559,-649.5 592.91,-716.88 547.81,-924.98 590,-987.5 616.78,-1027.19 664.59,-1051.89 705.86,-1066.7"/>
<polygon fill="#475569" stroke="#475569" points="705.27,-1069.09 712.68,-1069.08 706.88,-1064.46 705.27,-1069.09"/>
<text text-anchor="middle" x="622.5" y="-1043.3" font-family="Arial" font-size="9.00">1:N house_id</text>
</g>
<!-- Measurement -->
<g id="node9" class="node">
<title>Measurement</title>
<polygon fill="#0891b2" stroke="transparent" points="1348,-969.5 1348,-996.5 1554,-996.5 1554,-969.5 1348,-969.5"/>
<text text-anchor="start" x="1354" y="-980.3" font-family="Arial" font-weight="bold" font-size="14.00" fill="white">measurements_measurement</text>
<text text-anchor="start" x="1354" y="-952.3" font-family="Arial" font-size="14.00">id PK</text>
<text text-anchor="start" x="1354" y="-925.3" font-family="Arial" font-size="14.00">house_id FK</text>
<text text-anchor="start" x="1354" y="-898.3" font-family="Arial" font-size="14.00">sensor_id FK NULL</text>
<text text-anchor="start" x="1354" y="-871.3" font-family="Arial" font-size="14.00">measurement_type</text>
<text text-anchor="start" x="1354" y="-844.3" font-family="Arial" font-size="14.00">value, timestamp</text>
<polygon fill="none" stroke="#0891b2" points="1347,-833.5 1347,-997.5 1555,-997.5 1555,-833.5 1347,-833.5"/>
</g>
<!-- House&#45;&gt;Measurement -->
<g id="edge9" class="edge">
<title>House&#45;&gt;Measurement</title>
<path fill="none" stroke="#475569" d="M513.15,-598.05C530.08,-612.36 547.39,-629.98 559,-649.5 589.59,-700.92 561.9,-727.68 590,-780.5 619.54,-836.04 629.54,-856.77 686,-884.5 898.14,-988.71 1184.76,-962.96 1339.64,-937.61"/>
<polygon fill="#475569" stroke="#475569" points="1340.41,-939.97 1346.91,-936.41 1339.61,-935.14 1340.41,-939.97"/>
<text text-anchor="middle" x="959.5" y="-960.3" font-family="Arial" font-size="9.00">1:N house_id</text>
</g>
<!-- Forecast -->
<g id="node12" class="node">
<title>Forecast</title>
<polygon fill="#ca8a04" stroke="transparent" points="711.5,-401.5 711.5,-428.5 856.5,-428.5 856.5,-401.5 711.5,-401.5"/>
<text text-anchor="start" x="717.5" y="-412.3" font-family="Arial" font-weight="bold" font-size="14.00" fill="white">forecasting_forecast</text>
<text text-anchor="start" x="717.5" y="-384.3" font-family="Arial" font-size="14.00">id PK</text>
<text text-anchor="start" x="717.5" y="-357.3" font-family="Arial" font-size="14.00">house_id FK NULL</text>
<text text-anchor="start" x="717.5" y="-330.3" font-family="Arial" font-size="14.00">model_id FK NULL</text>
<text text-anchor="start" x="717.5" y="-303.3" font-family="Arial" font-size="14.00">target, horizon</text>
<text text-anchor="start" x="717.5" y="-276.3" font-family="Arial" font-size="14.00">forecast_value</text>
<polygon fill="none" stroke="#ca8a04" points="710,-265.5 710,-429.5 857,-429.5 857,-265.5 710,-265.5"/>
</g>
<!-- House&#45;&gt;Forecast -->
<g id="edge10" class="edge">
<title>House&#45;&gt;Forecast</title>
<path fill="none" stroke="#475569" d="M513.25,-523.37C536.72,-507.29 564.63,-488.32 590,-471.5 627.27,-446.79 668.96,-419.85 703.98,-397.42"/>
<polygon fill="#475569" stroke="#475569" points="705.42,-399.41 709.99,-393.57 702.78,-395.28 705.42,-399.41"/>
<text text-anchor="middle" x="622.5" y="-474.3" font-family="Arial" font-size="9.00">0..1:N house_id</text>
</g>
<!-- Decision -->
<g id="node13" class="node">
<title>Decision</title>
<polygon fill="#ea580c" stroke="transparent" points="1043.5,-491.5 1043.5,-518.5 1205.5,-518.5 1205.5,-491.5 1043.5,-491.5"/>
<text text-anchor="start" x="1050.5" y="-502.3" font-family="Arial" font-weight="bold" font-size="14.00" fill="white">fuzzy_engine_decision</text>
<text text-anchor="start" x="1049.5" y="-474.3" font-family="Arial" font-size="14.00">id PK</text>
<text text-anchor="start" x="1049.5" y="-447.3" font-family="Arial" font-size="14.00">house_id FK</text>
<text text-anchor="start" x="1049.5" y="-420.3" font-family="Arial" font-size="14.00">forecast_id FK NULL</text>
<text text-anchor="start" x="1049.5" y="-393.3" font-family="Arial" font-size="14.00">action, confidence_score</text>
<text text-anchor="start" x="1049.5" y="-366.3" font-family="Arial" font-size="14.00">risk_score, fired_rules</text>
<polygon fill="none" stroke="#ea580c" points="1042.5,-355.5 1042.5,-519.5 1206.5,-519.5 1206.5,-355.5 1042.5,-355.5"/>
</g>
<!-- House&#45;&gt;Decision -->
<g id="edge11" class="edge">
<title>House&#45;&gt;Decision</title>
<path fill="none" stroke="#475569" d="M513.28,-550.54C627.59,-529.36 895.68,-479.7 1035.36,-453.83"/>
<polygon fill="#475569" stroke="#475569" points="1035.89,-456.22 1042.33,-452.54 1035,-451.4 1035.89,-456.22"/>
<text text-anchor="middle" x="783.5" y="-519.3" font-family="Arial" font-size="9.00">1:N house_id</text>
</g>
<!-- Alert -->
<g id="node14" class="node">
<title>Alert</title>
<polygon fill="#dc2626" stroke="transparent" points="1382,-590.5 1382,-617.5 1521,-617.5 1521,-590.5 1382,-590.5"/>
<text text-anchor="start" x="1415" y="-601.3" font-family="Arial" font-weight="bold" font-size="14.00" fill="white">alerts_alert</text>
<text text-anchor="start" x="1388" y="-573.3" font-family="Arial" font-size="14.00">id PK</text>
<text text-anchor="start" x="1388" y="-546.3" font-family="Arial" font-size="14.00">house_id FK</text>
<text text-anchor="start" x="1388" y="-519.3" font-family="Arial" font-size="14.00">decision_id FK NULL</text>
<text text-anchor="start" x="1388" y="-492.3" font-family="Arial" font-size="14.00">severity, alert_type</text>
<text text-anchor="start" x="1388" y="-465.3" font-family="Arial" font-size="14.00">message, is_read</text>
<polygon fill="none" stroke="#dc2626" points="1380.5,-454.5 1380.5,-618.5 1521.5,-618.5 1521.5,-454.5 1380.5,-454.5"/>
</g>
<!-- House&#45;&gt;Alert -->
<g id="edge12" class="edge">
<title>House&#45;&gt;Alert</title>
<path fill="none" stroke="#475569" d="M513.1,-559.2C678.31,-555.2 1180.13,-543.04 1373.18,-538.36"/>
<polygon fill="#475569" stroke="#475569" points="1373.26,-540.81 1380.2,-538.19 1373.14,-535.91 1373.26,-540.81"/>
<text text-anchor="middle" x="959.5" y="-551.3" font-family="Arial" font-size="9.00">1:N house_id</text>
</g>
<!-- House&#45;&gt;DataExport -->
<g id="edge13" class="edge">
<title>House&#45;&gt;DataExport</title>
<path fill="none" stroke="#475569" d="M513.17,-503.18C528.23,-486.7 544.46,-468.56 559,-451.5 573.36,-434.65 573.76,-427.55 590,-412.5 615.59,-388.79 634.98,-397.07 655,-368.5 687.36,-322.33 658.86,-294.91 686,-245.5 692.55,-233.58 700.82,-222.02 709.76,-211.21"/>
<polygon fill="#475569" stroke="#475569" points="711.83,-212.56 714.49,-205.64 708.09,-209.39 711.83,-212.56"/>
<text text-anchor="middle" x="622.5" y="-415.3" font-family="Arial" font-size="9.00">1:N house_id</text>
</g>
<!-- EnergyAsset&#45;&gt;Sensor -->
<g id="edge14" class="edge">
<title>EnergyAsset&#45;&gt;Sensor</title>
<path fill="none" stroke="#475569" d="M881.19,-752.88C928.29,-767.19 984.65,-784.31 1031.15,-798.44"/>
<polygon fill="#475569" stroke="#475569" points="1030.53,-800.81 1037.94,-800.5 1031.96,-796.13 1030.53,-800.81"/>
<text text-anchor="middle" x="959.5" y="-792.3" font-family="Arial" font-size="9.00">0..1:N energy_asset_id</text>
</g>
<!-- Sensor&#45;&gt;Measurement -->
<g id="edge15" class="edge">
<title>Sensor&#45;&gt;Measurement</title>
<path fill="none" stroke="#475569" d="M1211.18,-850C1250.58,-860.81 1297.8,-873.76 1339.8,-885.28"/>
<polygon fill="#475569" stroke="#475569" points="1339.37,-887.7 1346.77,-887.19 1340.66,-882.97 1339.37,-887.7"/>
<text text-anchor="middle" x="1279" y="-878.3" font-family="Arial" font-size="9.00">0..1:N sensor_id</text>
</g>
<!-- ImportedModel -->
<g id="node11" class="node">
<title>ImportedModel</title>
<polygon fill="#ca8a04" stroke="transparent" points="362.5,-403.5 362.5,-430.5 554.5,-430.5 554.5,-403.5 362.5,-403.5"/>
<text text-anchor="start" x="368.5" y="-414.3" font-family="Arial" font-weight="bold" font-size="14.00" fill="white">forecasting_importedmodel</text>
<text text-anchor="start" x="368.5" y="-386.3" font-family="Arial" font-size="14.00">id PK</text>
<text text-anchor="start" x="368.5" y="-359.3" font-family="Arial" font-size="14.00">target</text>
<text text-anchor="start" x="368.5" y="-332.3" font-family="Arial" font-size="14.00">model_type</text>
<text text-anchor="start" x="368.5" y="-305.3" font-family="Arial" font-size="14.00">file_path</text>
<text text-anchor="start" x="368.5" y="-278.3" font-family="Arial" font-size="14.00">feature_columns</text>
<polygon fill="none" stroke="#ca8a04" points="361.5,-267.5 361.5,-431.5 555.5,-431.5 555.5,-267.5 361.5,-267.5"/>
</g>
<!-- ImportedModel&#45;&gt;Forecast -->
<g id="edge16" class="edge">
<title>ImportedModel&#45;&gt;Forecast</title>
<path fill="none" stroke="#475569" d="M555.54,-348.91C602.49,-348.61 658.33,-348.27 702.87,-347.99"/>
<polygon fill="#475569" stroke="#475569" points="702.94,-350.44 709.92,-347.95 702.91,-345.54 702.94,-350.44"/>
<text text-anchor="middle" x="622.5" y="-351.3" font-family="Arial" font-size="9.00">0..1:N model_id</text>
</g>
<!-- Forecast&#45;&gt;Decision -->
<g id="edge17" class="edge">
<title>Forecast&#45;&gt;Decision</title>
<path fill="none" stroke="#475569" d="M857.22,-366.81C909.37,-380.65 979.89,-399.37 1035.26,-414.07"/>
<polygon fill="#475569" stroke="#475569" points="1034.89,-416.51 1042.28,-415.94 1036.14,-411.77 1034.89,-416.51"/>
<text text-anchor="middle" x="959.5" y="-408.3" font-family="Arial" font-size="9.00">0..1:N forecast_id</text>
</g>
<!-- Decision&#45;&gt;Alert -->
<g id="edge18" class="edge">
<title>Decision&#45;&gt;Alert</title>
<path fill="none" stroke="#475569" d="M1206.55,-462.23C1257.65,-477.82 1323.22,-497.82 1373.44,-513.14"/>
<polygon fill="#475569" stroke="#475569" points="1373.01,-515.57 1380.42,-515.27 1374.44,-510.89 1373.01,-515.57"/>
<text text-anchor="middle" x="1279" y="-495.3" font-family="Arial" font-size="9.00">0..1:N decision_id</text>
</g>
</g>
</svg>
